<?xml version="1.0" encoding="UTF-8" standalone="no" ?>
<!DOCTYPE svg PUBLIC "-//W3C//DTD SVG 1.1//EN" "http://www.w3.org/Graphics/SVG/1.1/DTD/svg11.dtd">
<svg xmlns="http://www.w3.org/2000/svg" xmlns:xlink="http://www.w3.org/1999/xlink" version="1.1" width="1280" height="1024" viewBox="0 0 1280 1024" xml:space="preserve">
<desc>Created with Fabric.js 5.3.0</desc>
<defs>
</defs>
<g transform="matrix(1 0 0 1 640 512)" id="background-logo"  >
<rect style="stroke: none; stroke-width: 0; stroke-dasharray: none; stroke-linecap: butt; stroke-dashoffset: 0; stroke-linejoin: miter; stroke-miterlimit: 4; fill: rgb(253,247,241); fill-rule: nonzero; opacity: 1;"  paint-order="stroke"  x="-640" y="-512" rx="0" ry="0" width="1280" height="1024" />
</g>
<g transform="matrix(1.9211538461538462 0 0 1.9211538461538462 640 405.1940255136807)" id="logo-logo"  >
<g style=""  paint-order="stroke"   >
		<g transform="matrix(1.547844959079495 0 0 1.547844959079495 0.0000012382760132823 -36.641673619374785)"  >
<path style="stroke: none; stroke-width: 1; stroke-dasharray: none; stroke-linecap: butt; stroke-dashoffset: 0; stroke-linejoin: miter; stroke-miterlimit: 4; fill: rgb(242,135,5); fill-rule: evenodd; opacity: 1;"  paint-order="stroke"  transform=" translate(-61.635949000000004, -42.61039355)" d="M 60.7680016 68.8817902 C 61.6189995 68.9208908 62.273998299999995 69.7006913 62.2318001 70.6230927 C 62.1893006 71.5454941 61.4655991 72.2617951 60.6148987 72.222992 C 59.7643013 72.1837922 59.1088982 71.4039918 59.151100199999995 70.481598 C 59.1935997 69.5591888 59.9173012 68.8428955 60.7680016 68.8817902 M 72.0743027 63.1605911 L 72.310997 63.6931915 L 100.06410220000001 65.3140945 L 100.08139800000001 64.4667892 C 100.081398 64.4667892 82.2931976 62.6727905 72.0743027 63.1605911 z M 84.2088013 46.4990921 C 84.2088013 46.4990921 83.12030030000001 55.0582962 82.86460120000001 58.742195099999996 L 88.56449900000001 53.9164962 L 88.61840070000001 48.0056915 L 84.2088013 46.4990921 z M 83.3612976 45.0687943 C 83.3612976 45.0687943 81.8643036 55.8516922 81.6524963 61.4693909 L 89.734703 62.5357895 L 89.61250299999999 47.181694 L 83.3612976 45.0687943 z M 91.3178024 54.0862961 L 91.21800230000001 59.5818939 L 92.57270050000001 59.904693599999995 L 92.82250210000001 62.046890299999994 L 93.54499810000002 60.036491399999996 L 93.90499870000002 62.139793399999995 L 94.60489650000002 60.15019229999999 L 95.01249690000003 62.16899109999999 L 95.63950340000002 60.34979249999999 L 96.11090080000002 62.39349369999999 L 96.71610250000002 60.573089599999996 L 97.03790270000002 62.566192599999994 L 97.89929950000001 60.844993599999995 L 98.67369830000001 62.9238892 L 99.10320270000001 56.8781891 L 91.3178024 54.0862961 z M 75.5432968 46.9132919 L 73.6990967 58.226890499999996 L 79.7882004 58.069290099999996 C 80.30349729999999 54.1293945 80.74459839999999 50.1594924 81.1930008 46.2085952 L 75.5432968 46.9132919 z M 74.7903976 46.131691 L 82.1809005 45.2098923 C 82.1809005 45.2098923 80.94979850000001 55.9364929 80.5521011 58.9184952 L 72.6728973 59.122390800000005 L 74.7903976 46.131691 z M 62.6800003 63.2294922 L 63.0974998 62.1834946 L 70.6759033 62.3787918 L 62.6800003 63.2294922 z M 63.2958984 61.1706924 L 67.8993988 61.2947921 L 67.6936035 57.7200927 L 65.5755997 52.709793000000005 L 63.3053017 57.64919270000001 L 63.2958984 61.1706924 z M 36.7182999 24.4707947 L 63.094699899999995 31.4638901 C 63.094699899999995 31.4638901 67.7621994 33.025795 68.8855973 35.0774918 C 70.0089036 37.128890999999996 73.8733979 44.828392099999995 73.8733979 44.828392099999995 L 73.4604035 47.200691299999995 L 68.4005967 39.02899179999999 C 68.6644975 38.67269139999999 68.8285981 38.236991999999994 68.85040289999999 37.76099409999999 C 68.90910349999999 36.48489389999999 67.92179879999999 35.40259569999999 66.6455994 35.34389509999999 C 65.36949919999999 35.28549209999999 64.287201 36.27278909999999 64.22879789999999 37.54899609999999 C 64.17070009999999 38.81378949999999 65.1404037 39.88819139999999 66.40039819999998 39.963790999999986 L 65.8638 40.2869949 L 38.0568008 31.315292300000003 L 61.7528 37.9676895 L 43.7994995 27.4479904 L 36.7182999 24.4707947 z M 32.4592018 59.5168915 C 33.010299700000004 59.5421906 33.436298400000005 60.0191956 33.4105987 60.5821915 C 33.384799900000004 61.145195 32.9169998 61.5810929 32.3660011 61.555893 C 31.8146 61.5309907 31.388900699999997 61.053588899999994 31.414699499999998 60.490593 C 31.4405003 59.9276962 31.9081993 59.491394 32.4592018 59.5168915 z M 33.3997993 53.7118912 C 33.9508018 53.73739629999999 34.3765983 54.2141953 34.3507995 54.777091999999996 C 34.325000700000004 55.34039309999999 33.8572997 55.7762909 33.3061981 55.751090999999995 C 32.7549019 55.7258911 32.3291015 55.2487946 32.354900300000004 54.685890199999996 C 32.3806992 54.1228943 32.8484001 53.6865921 33.3997993 53.7118912 z M 34.9576988 15.4988937 C 35.5089988 15.5240936 35.934501600000004 16.0011901 35.908699000000006 16.5640945 C 35.88290020000001 17.1270904 35.4151992 17.5632934 34.864200600000004 17.537796 C 34.31309890000001 17.5125961 33.8872986 17.0354919 33.91310120000001 16.4725952 C 33.9389 15.9095917 34.406601 15.4735947 34.9576988 15.4988937 z M 66.6906967 36.5202942 C 67.24179840000001 36.5454941 67.6675033 37.0228958 67.6417007 37.585891700000005 C 67.6158981 38.148796100000006 67.1482009 38.584793100000006 66.5971984 38.5595932 C 66.04579919999999 38.534294100000004 65.6201018 38.0572891 65.6461028 37.4942932 C 65.6718979 36.9310913 66.1397018 36.4953918 66.6906967 36.5202942 z M 61.6325989 28.8482895 C 62.023998299999995 28.8661957 62.326499999999996 29.204895 62.308101699999995 29.6045914 C 62.289901799999996 30.0045929 61.9576989 30.313896200000002 61.56620029999999 30.29599 C 61.17509849999999 30.2780914 60.87260059999999 29.9393921 60.89099889999999 29.5393906 C 60.9094009 29.1396942 61.2414017 28.8301926 61.6325989 28.8482895 z M 25.1072998 27.4204941 C 25.4988003 27.438392699999998 25.8008995 27.777092 25.7828007 28.176796 C 25.7644005 28.576789899999998 25.4321995 28.885994 25.041000399999998 28.8681946 C 24.6494999 28.850296 24.3472996 28.5115891 24.365800899999996 28.1115952 C 24.3841991 27.7118912 24.7161007 27.4026947 25.1072998 27.4204941 z M 34.2132988 19.4324951 L 34.9743996 19.423996 L 35.971900999999995 32.7532959 L 34.2132988 19.4324951 z M 33.490799 18.5953903 L 31.540500700000003 22.2452926 L 32.683998200000005 38.0812911 L 30.1243 22.7889938 L 28.6707001 23.200592 L 27.0370999 29.4302902 L 31.5776997 52.7264938 L 30.6977997 52.9470901 L 26.0767994 29.516494699999996 L 28.0280991 22.040695099999994 L 30.0933991 21.570396299999995 L 32.4940987 18.049789299999993 C 32.4940987 18.0497894 32.9062996 18.5471954 33.490799 18.5953903 z M 26.1896 55.0236893 L 26.3754997 56.184494 L 29.6392994 61.3344955 L 27.4652004 56.125595000000004 L 31.120199200000002 55.1195907 L 31.132600800000002 53.902389500000005 L 26.1896 55.0236893 z M 49.6514015 23.6628952 L 49.384101799999996 24.281189 L 58.445598499999996 29.110290600000003 L 58.624401 28.531395000000003 L 49.6514015 23.6628952 z M 67.5771027 50.4429932 L 68.9905014 50.442695699999994 L 70.7014008 54.847389299999996 L 69.8799973 55.222694499999996 L 67.5771027 50.4429932 z M 65.9160004 46.8448944 L 66.7329026 48.4691925 L 65.9007035 48.6052933 L 69.42500310000001 58.0284958 L 65.19149790000002 48.8985901 L 63.96659860000002 48.5816956 L 65.9160004 46.8448944 z M 69.2092972 48.0394897 L 70.82279969999999 46.982994 L 70.37349699999999 46.353691 L 71.34799959999998 45.963592399999996 L 72.27639769999998 47.52809129999999 L 71.38150019999998 48.07398969999999 L 72.98989859999998 53.29999529999999 L 70.47519679999998 48.401992699999994 L 69.2092972 48.0394897 z M 67.2888031 39.6687927 L 67.9949036 39.439994799999994 L 70.4757996 45.075790399999995 L 67.2888031 39.6687927 z M 80.4228973 69.7754974 C 81.2624969 69.7754974 81.9430999 70.49499510000001 81.9430999 71.382492 C 81.9430999 72.26998889999999 81.2624969 72.9893951 80.4228973 72.9893951 C 79.58319850000001 72.9893951 78.90260310000001 72.269989 78.90260310000001 71.382492 C 78.90260310000001 70.494995 79.5831985 69.7754974 80.4228973 69.7754974 z M 96.6026993 70.3398895 C 97.44239809999999 70.3398895 98.1230011 71.0592956 98.1230011 71.9470978 C 98.1230011 72.83469389999999 97.44239809999999 73.55409239999999 96.6026993 73.55409239999999 C 95.7633972 73.55409239999999 95.0828018 72.83469389999999 95.0828018 71.9470978 C 95.0828018 71.0592957 95.7633972 70.3398895 96.6026993 70.3398895 z M 49.6706009 65.0356903 L 49.96799849999999 64.7108917 L 50.08679959999999 64.718193 L 50.174400299999995 64.6512908 C 52.07730099999999 63.198592999999995 54.98730079999999 62.5848922 57.35110089999999 62.727989099999995 L 58.663299499999994 62.7988891 L 59.093601199999995 61.540290799999994 L 59.221401199999995 56.809593199999995 L 62.085498799999996 50.754196199999996 C 61.5694008 50.377494799999994 61.158901199999995 49.843391499999996 60.9241981 49.20589449999999 C 60.6375999 48.42719269999999 60.6554985 47.56949619999999 60.904598199999995 46.78289029999999 L 59.77590179999999 44.58599089999999 L 37.989399 36.8624954 L 37.7812996 51.9897918 L 39.309398699999996 51.257095299999996 L 45.78919989999999 52.95329279999999 L 54.827999199999994 53.013694699999995 L 47.247299299999995 66.8858947 L 49.6706009 65.0356903 z M 32.9646988 76.0814972 L 24.6033001 66.9161911 L 25.163400699999997 63.6591949 L 23.6285 62.0785904 L 24.1086998 60.6938934 L 21.8829002 57.461792 L 19.8159008 53.0142899 L 22.509899100000002 52.119590800000005 L 22.326000200000003 44.5312958 L 21.693300200000003 43.697090200000005 L 21.692699400000002 31.974090600000004 L 21.1107006 31.664794900000004 L 11.392999600000001 37.2754898 L 11.392999600000001 76.9519958 C 18.5790997 76.5825958 25.7698002 76.2923889 32.9646988 76.0814972 z M 61.6360016 8.2676926 L 44.9011002 17.929596 L 47.0605011 19.1441956 L 48.2728996 18.5857926 L 60.3694 25.303093 C 60.7305984 25.2151947 61.1049995 25.1782914 61.4819984 25.195594800000002 C 63.1283989 25.2709961 64.4926986 26.348190300000002 65.0137023 27.8102951 L 65.5970992 27.964492800000002 L 70.6445006 31.1789932 L 76.2062987 41.7110901 L 83.5149001 40.7844925 L 92.82440170000001 43.9989929 L 93.08920270000002 50.6841888 L 102.51129900000001 54.3722915 L 102.2618025 61.6179962 L 103.1576002 61.7763901 L 103.2751997 68.4709931 L 102.7570036 68.493393 C 103.2873991 69.6365967 103.5087965 70.933487 103.4460981 72.30369569999999 C 103.373596 73.88519289999999 102.9288023 75.33448789999998 102.073303 76.49929809999999 C 105.3407972 76.63419339999999 108.60939769999999 76.78529359999999 111.8788984 76.95309449999999 L 111.8788984 37.2754898 L 61.6360016 8.2676926 z M 62.3961983 40.1613922 L 65.4588013 45.910896300000005 L 64.7602997 46.4440918 L 62.3961983 40.1613922 z" stroke-linecap="round" />
</g>
		<g transform="matrix(1.547844959079495 0 0 1.547844959079495 0 0)"  >
<path style="stroke: none; stroke-width: 1; stroke-dasharray: none; stroke-linecap: butt; stroke-dashoffset: 0; stroke-linejoin: miter; stroke-miterlimit: 4; fill: rgb(0,0,0); fill-rule: evenodd; opacity: 1;"  paint-order="stroke"  transform=" translate(-61.635948199999994, -66.2830963)" d="M 46.348999 23.0520935 L 36.1845016 17.332893400000003 C 36.016200999999995 17.554489200000003 35.8083992 17.7438889 35.5722999 17.891594000000005 L 36.350898699999995 22.527893100000004 L 50.692798599999996 26.308792100000005 L 46.6386986 24.326194700000006 L 46.348999 23.0520935 z M 50.178299 68.0021973 C 50.3688012 67.61099250000001 50.6072007 67.26879120000001 50.8807984 66.9700928 L 56.8301011 67.3388977 C 56.5736009 67.47918700000001 56.367199 68.18729400000001 56.367199 68.18729400000001 L 50.178299 68.0021973 z M 62.0920982 39.7270889 L 65.154602 45.4766922 L 64.45619959999999 46.009895300000004 L 62.0920982 39.7270889 z M 66.9847031 39.2341919 L 67.69080360000001 39.0056915 L 70.17169960000001 44.6415939 L 66.9847031 39.2341919 z M 68.905098 47.6051941 L 70.51860049999999 46.548690799999996 L 70.06929779999999 45.91909029999999 L 71.04389949999998 45.52909089999999 L 71.97219849999998 47.093795799999995 L 71.07730099999998 47.63949589999999 L 72.68569939999998 52.86569219999999 L 70.17109669999998 47.96749119999999 L 68.905098 47.6051941 z M 65.6118011 46.4106903 L 66.4288024 48.0348892 L 65.5964966 48.17099 L 69.120903 57.594192500000005 L 64.8872986 48.46439360000001 L 63.66249849999999 48.14749140000001 L 65.6118011 46.4106903 z M 67.2729034 50.0086899 L 68.6863021 50.0080948 L 70.39730060000001 54.413192800000004 L 69.57579790000001 54.78849030000001 L 67.2729034 50.0086899 z M 49.3471985 23.2286911 L 49.079898799999995 23.846893299999998 L 58.141399299999996 28.6759949 L 58.32030099999999 28.096893299999998 L 49.3471985 23.2286911 z M 25.8854008 54.5894928 L 26.0713997 55.749992400000004 L 29.3351994 60.899993900000005 L 27.1609993 55.6912918 L 30.816 54.6849899 L 30.8285008 53.4680938 L 25.8854008 54.5894928 z M 26.9897995 41.8783951 L 28.8561001 52.856094399999996 L 26.390600199999998 53.525589 L 26.093999899999996 43.403091399999994 L 26.710300499999995 43.23559569999999 L 26.9897995 41.8783951 z M 33.1865997 18.1611938 L 31.236400600000003 21.810791 L 32.3799019 37.6467895 L 29.8202 22.3546906 L 28.3666 22.7662964 L 26.732999799999998 28.995994600000003 L 31.273500399999996 52.292289800000006 L 30.393600399999997 52.51279460000001 L 25.7726001 29.082191600000005 L 27.7240009 21.606392000000007 L 29.7893009 21.13609320000001 L 32.1899986 17.61549380000001 C 32.1899986 17.6154938 32.6021004 18.1126938 33.1865997 18.1611938 z M 33.9091988 18.9981918 L 34.6702996 18.9893951 L 35.667801 32.319091799999995 L 33.9091988 18.9981918 z M 24.8031006 26.98629 C 25.1945992 27.0040894 25.4967995 27.3425904 25.4785996 27.7422943 C 25.4601994 28.142189000000002 25.1280003 28.4517898 24.736799299999998 28.433891300000003 C 24.345399899999997 28.415794400000003 24.043199599999998 28.077293400000002 24.061599799999996 27.677291900000004 C 24.0799999 27.2776947 24.4120007 26.9680939 24.8031006 26.98629 z M 61.3283997 28.414093 C 61.7198983 28.431892400000002 62.0223008 28.7703934 62.0038987 29.170089700000002 C 61.9858018 29.569992000000003 61.6534997 29.879592900000002 61.2621003 29.861694300000003 C 60.8708993 29.843894900000002 60.5684014 29.505096400000003 60.5868989 29.105194100000002 C 60.6053009 28.7054901 60.9371986 28.3958893 61.3283997 28.414093 z M 66.3865967 36.0859909 C 66.9375992 36.11129 67.3634033 36.588295 67.3376007 37.1512909 C 67.31179809999999 37.7144928 66.8441009 38.1504898 66.29299929999999 38.1252899 C 65.7416993 38.10009 65.3159027 37.6226959 65.3420029 37.059692399999996 C 65.3677979 36.4967957 65.8355026 36.060791 66.3865967 36.0859909 z M 34.6534996 15.0642929 C 35.2048988 15.0894928 35.630401600000006 15.5668945 35.604599 16.1298904 C 35.5788002 16.6927948 35.1110992 17.1290893 34.5600014 17.1035919 C 34.0087014 17.0782928 33.583198599999996 16.601295500000003 33.609001199999994 16.0382919 C 33.6348 15.47509 34.1025009 15.0393906 34.6534996 15.0642929 z M 33.0956001 53.2775955 C 33.646701799999995 53.302795399999994 34.0723991 53.779891899999996 34.0466003 54.3428955 C 34.0209007 54.9057922 33.5531005 55.3420944 33.0021019 55.316795299999995 C 32.4506989 55.2912902 32.0250015 54.81449119999999 32.0508003 54.251594499999996 C 32.0765991 53.6882935 32.5443001 53.2523956 33.0956001 53.2775955 z M 32.1551018 59.082695 C 32.7061005 59.1078949 33.1321984 59.5849914 33.106399599999996 60.1478958 C 33.0806008 60.7108917 32.612899799999994 61.1468963 32.0617982 61.1215896 C 31.510500099999998 61.0963897 31.084699699999998 60.6192932 31.1105004 60.0563888 C 31.1362991 59.4933929 31.6040001 59.0571899 32.1551018 59.082695 z M 36.4141006 24.0361938 L 62.7905006 31.0292892 C 62.7905006 31.0292892 67.4580001 32.5914917 68.58139800000001 34.6431961 C 69.70480350000001 36.694595299999996 73.5692978 44.393791199999995 73.5692978 44.393791199999995 L 73.1563034 46.766395599999996 L 68.0963974 38.59469609999999 C 68.3602982 38.23809059999999 68.5243988 37.802391099999994 68.5463028 37.32649239999999 C 68.6048966 36.05029309999999 67.61759950000001 34.968093999999994 66.34149930000001 34.909690899999994 C 65.06530000000001 34.85099029999999 63.98310090000001 35.83859259999999 63.92440030000001 37.11449439999999 C 63.86660000000001 38.37959299999999 64.83630370000002 39.45359049999999 66.0962982 39.52959449999999 L 65.5597 39.8526917 L 37.75270080000001 30.8807908 L 61.44860080000001 37.5333939 L 43.4953995 27.0137939 L 36.4141006 24.0361938 z M 62.9917984 60.7363892 L 67.5951996 60.8605957 L 67.3893967 57.2857895 L 65.27140050000001 52.275589 L 63.001098700000014 57.2148895 L 62.9917984 60.7363892 z M 62.3758011 62.7951889 L 62.793399799999996 61.7491913 L 70.3718033 61.9444962 L 62.3758011 62.7951889 z M 75.2390976 46.4789963 L 73.3948975 57.7922898 L 79.4840012 57.6346894 C 79.9993973 53.694893 80.44039919999999 49.7251893 80.88890079999999 45.7742921 L 75.2390976 46.4789963 z M 74.4862976 45.6974945 L 81.8768005 44.775390599999994 C 81.8768005 44.775390599999994 80.64569850000001 55.502189599999994 80.2480011 58.4839935 L 72.3687973 58.6880951 L 74.4862976 45.6974945 z M 91.0137024 53.6517944 L 90.9139023 59.1475906 L 92.2686005 59.4704895 L 92.518303 61.6125946 L 93.2408982 59.601989700000004 L 93.60089880000001 61.705589200000006 L 94.3006974 59.7158889 L 94.70829780000001 61.73479450000001 L 95.33540350000001 59.91548910000001 L 95.80680090000001 61.95899190000001 L 96.41200260000001 60.13889300000001 L 96.73370360000001 62.13188920000001 L 97.5951004 60.41039260000001 L 98.3695984 62.48959330000001 L 98.7990036 56.44389320000001 L 91.0137024 53.6517944 z M 83.9047012 46.0645905 C 83.9047012 46.0645905 82.81620020000001 54.6240921 82.56050110000001 58.3079911 L 88.26039890000001 53.4819947 L 88.31420140000002 47.57119 L 83.9047012 46.0645905 z M 83.0570984 44.634491 C 83.0570984 44.634491 81.5600968 55.4171906 81.3483963 61.035194399999995 L 89.43049620000001 62.101592999999994 L 89.3082962 46.747093199999995 L 83.0570984 44.634491 z M 71.7701035 62.7259903 L 72.0067978 63.2589951 L 99.76000210000001 64.8797913 L 99.77729790000001 64.0324936 C 99.777298 64.0324936 81.9889984 62.2384949 71.7701035 62.7259903 z M 96.1733017 70.0773926 C 96.9763031 70.11428839999999 97.59490199999999 70.85009769999999 97.5549011 71.7206879 C 97.5149002 72.59169010000001 96.83180229999999 73.2674942 96.0287018 73.23069770000001 C 95.2259979 73.19379430000001 94.60739899999999 72.45819100000001 94.6473999 71.58738720000001 C 94.6874008 70.7168884 95.3707962 70.0405884 96.1733017 70.0773926 z M 80.1136017 69.4713898 C 80.9163971 69.508194 81.5348969 70.2440949 81.4949036 71.1148911 C 81.4550019 71.9853974 80.7714997 72.66149139999999 79.9690018 72.6245881 C 79.1660004 72.5877915 78.5475006 71.8521882 78.5874024 70.981392 C 78.6274033 70.1105957 79.3106003 69.434494 80.1136017 69.4713898 z M 60.4637985 68.4474945 C 61.3148002 68.4865875 61.9698982 69.266098 61.9277 70.18879700000001 C 61.8851013 71.1111908 61.1613998 71.8274918 60.3107986 71.78839110000001 C 59.4600982 71.74958800000002 58.8046989 70.96978760000002 58.847000099999995 70.04739380000001 C 58.8894997 69.1246948 59.6132011 68.4083939 60.4637985 68.4474945 z M 80.4988022 67.7744904 C 78.5798035 67.7087937 76.9524002 69.2286911 76.8869019 71.1477967 C 76.8211976 73.067093 78.3407975 74.6944886 80.2602005 74.7599946 L 95.49690249999999 75.2812959 C 97.41600039999999 75.34699260000001 99.04370119999999 73.8273927 99.10910039999999 71.90829480000001 C 99.17489629999999 69.9892885 97.65499879999999 68.3618928 95.73560339999999 68.29609690000001 L 80.4988022 67.7744904 z M 76.5278015 69.0849915 C 76.7893982 68.6263886 77.1300964 68.2192917 77.5304031 67.881691 L 70.4145965 67.6338959 C 70.4145965 67.6338959 70.0414962 68.03729249999999 69.6931991 68.7017975 L 76.5278015 69.0849915 z M 75.9761963 71.7534943 C 75.9529038 71.5445938 75.944397 71.3316956 75.9517975 71.1156922 C 75.9695969 70.5986939 76.0765 70.104889 76.257103 69.6479951 L 69.4307022 69.2768937 C 69.1994018 69.8718873 69.0411987 70.5932923 69.1242981 71.3810883 L 75.9761963 71.7534943 z M 95.7678986 67.3609924 C 98.20320129999999 67.4442901 100.1276017 69.5047912 100.0442963 71.940094 C 99.9608994 74.3755951 97.9001999 76.2996979 95.4648972 76.2163925 L 80.22810369999999 75.69479369999999 C 78.15489969999999 75.62399289999999 76.4526978 74.1207886 76.04329689999999 72.17279049999999 L 69.19969949999998 71.8393936 C 69.40119939999998 72.7402954 69.94059759999998 73.709198 71.04930119999997 74.6635895 C 71.04930119999997 74.6635895 68.42810059999998 73.9781952 68.42179879999998 70.3256912 C 68.42179879999998 70.3256912 68.59619909999998 67.46359249999999 70.65350349999997 66.68829339999999 C 75.2697983 66.0822906 91.2889023 67.2078934 95.7678986 67.3609924 z M 39.9832001 55.1943893 L 48.4634018 57.0615921 L 38.9188004 58.4935913 L 37.1747017 60.5007934 L 37.7188988 65.6998901 L 43.7566986 73.4117889 L 35.6694984 65.8231964 L 35.281398700000004 60.0659943 L 39.9832001 55.1943893 z M 49.3852005 75.7387924 C 51.660301200000006 75.7103882 53.9359016 75.6896972 56.2118988 75.6772919 C 52.7176018 75.1961975 49.0306015 73.5648957 49.772399899999996 69.2762909 C 49.817199699999996 69.018692 49.879600499999995 68.7771912 49.95579909999999 68.5486908 L 56.162601499999994 68.8519898 C 56.145500199999994 71.59029389999999 57.33380129999999 72.2319947 57.33380129999999 72.2319947 C 56.63399889999999 70.8957978 57.05210119999999 69.3712922 57.05210119999999 69.3712922 C 57.82820139999999 66.6672974 60.87509919999999 66.58988959999999 60.87509919999999 66.58988959999999 L 67.82969669999999 66.6480943 L 67.20770269999998 66.216591 L 54.587898299999985 65.7355958 L 58.743801199999986 66.1326905 C 58.35800179999998 66.2559891 57.83700189999998 66.6891938 57.83700189999998 66.6891938 L 51.50830089999998 66.3985902 C 53.74060069999998 64.6943895 57.23260129999998 64.9234925 57.23260129999998 64.9234925 L 67.98899849999998 65.50369269999999 L 68.11509709999999 64.63938909999999 L 61.35250099999999 64.19889069999999 L 60.93099979999999 62.96189119999999 L 61.28219989999999 61.93489079999999 L 61.40660099999999 57.33139039999999 L 64.72830199999999 50.30918889999999 L 64.08570099999999 49.148895299999985 C 64.08570099999999 49.148895299999985 63.29679869999999 49.286689799999984 62.98749919999999 48.446495099999986 C 62.678001399999985 47.606292799999984 63.368801099999985 46.768394499999985 63.368801099999985 46.768394499999985 L 61.332900999999985 42.80529029999998 L 35.83300019999999 33.765594599999986 L 35.57279969999998 52.71069349999999 L 36.55390169999998 55.01669329999999 L 39.53279879999998 53.58798999999999 L 45.97740179999998 55.27519249999999 L 51.09310159999998 55.263794199999985 L 44.74969869999998 66.87139159999998 L 48.54899979999998 75.04629549999999 L 49.3852005 75.7387924 z M 3.3292999 77.399292 C 4.2080002 77.3468933 5.0865001 77.2960968 5.9651999 77.24589540000001 L 5.9651999 66.2831955 L 5.9651999 34.1414948 L 21.332999700000002 25.268989599999998 L 21.0505996 28.337295599999997 L 8.481299900000002 35.5941926 L 8.481299900000002 77.10559090000001 C 17.602899100000002 76.6098939 26.7310004 76.24159250000001 35.8670993 76.00129710000002 L 26.952100299999998 66.22909560000002 L 27.519599499999998 62.92959610000002 L 26.1495987 61.51909650000002 L 26.5503994 60.36339580000002 L 23.7982994 56.36739360000002 L 22.848699200000002 54.32389080000002 L 24.746999400000004 53.69319160000002 L 24.506900400000003 43.76819620000002 L 23.8917995 42.95748910000002 L 23.8911987 30.65229040000002 L 23.0848003 30.22399140000002 L 23.4314991 26.45729070000002 L 24.7275005 25.69029240000002 L 26.080400100000002 20.83909610000002 L 28.5007 20.2111893 L 32.0786018 16.162994400000002 C 32.0685997 16.0578919 32.066101 15.950691200000003 32.0708999 15.842392000000002 C 32.1290016 14.578193700000002 33.2008018 13.600494400000002 34.4648017 13.658592300000002 C 35.6468009 13.712791500000002 36.5786017 14.653289900000003 36.6469001 15.808990600000001 L 46.9609985 21.610595800000002 L 48.1805 21.04879 L 60.244201600000004 27.748191900000002 C 60.5582008 27.5075913 60.955699900000006 27.3722916 61.381401000000004 27.391594 C 62.341800600000006 27.435791100000003 63.084499300000004 28.2498933 63.040298400000005 29.2099915 C 63.03490060000001 29.3270951 63.0178985 29.4412919 62.990600500000006 29.5507889 L 64.70529930000001 30.002594000000002 L 68.97200000000001 32.7204895 L 74.97299950000001 44.0836945 L 83.28250110000002 43.0297928 L 90.68710320000002 45.586891200000004 L 90.94899740000002 52.2077942 L 100.26059710000003 55.852294900000004 L 99.99890120000002 63.4493942 L 100.99130230000002 63.6251907 L 101.03919960000002 66.3668899 L 96.63899970000001 66.5561904 C 96.63899970000001 66.5561904 101.48490120000001 67.08319080000001 101.24990060000002 72.20278920000001 C 101.14209730000002 74.55109390000001 100.06240060000002 75.75659170000002 98.92520120000002 76.37429800000001 C 104.21119670000002 76.5755919 109.49980140000002 76.81959520000001 114.79070260000002 77.106491 L 114.79070260000002 35.5941925 L 61.6360016 4.9051895 L 41.9513016 16.270195 L 39.402401 14.836395300000001 L 61.6360016 2 L 89.47160339999999 18.070694 L 117.30670169999999 34.141494800000004 L 117.30670169999999 66.2831955 L 117.30670169999999 77.24649050000001 C 118.1852036 77.2960968 119.06390379999999 77.34709170000001 119.9425965 77.399292 C 121.77100379999999 77.508194 123.27189639999999 78.99319460000001 123.27189639999999 80.9419937 L 123.27189639999999 109.8202972 C 123.27189639999999 111.7690887 121.77159889999999 113.46109 119.9425965 113.3629913 C 111.0736008 112.8875885 102.2057038 112.5210952 93.33920289999999 112.2625885 L 89.47160339999999 114.495491 L 61.63600159999999 130.5661926 L 33.8005981 114.495491 L 29.932699200000002 112.2619934 C 21.0636997 112.5207901 12.195798900000003 112.88758849999999 3.3292999000000023 113.36299129999999 C 1.5003999 113.4610901 0 111.7690887 0 109.8202972 L 0 80.9419937 C 0 78.9931946 1.5009 77.5083923 3.3292999 77.399292 z" stroke-linecap="round" />
</g>
		<g transform="matrix(1.547844959079495 0 0 1.547844959079495 0.0002331828430897076 80.28702341726381)"  >
<polygon style="stroke: none; stroke-width: 1; stroke-dasharray: none; stroke-linecap: butt; stroke-dashoffset: 0; stroke-linejoin: miter; stroke-miterlimit: 4; fill: rgb(242,135,5); fill-rule: evenodd; opacity: 1;"  paint-order="stroke"  points="-21.287797949999998,-6.145198800000003 -0.00009724999999605188,3.938198100000008 21.287797949999998,-6.145198800000003 -0.00009724999999605188,6.145198800000003 " />
</g>
</g>
</g>
<g transform="matrix(1.9211538461538462 0 0 1.9211538461538462 639.6436259615386 678.3826734392524)" id="text-logo"  >
<g style=""  paint-order="stroke"   >
		<g transform="matrix(1 0 0 1 -5.684342e-14 0)" id="text-logo-path-0"  >
<path style="stroke: none; stroke-width: 0; stroke-dasharray: none; stroke-linecap: butt; stroke-dashoffset: 0; stroke-linejoin: miter; stroke-miterlimit: 4; fill: rgb(0,0,0); fill-rule: nonzero; opacity: 1;"  paint-order="stroke"  transform=" translate(-296.085, 18.55)" d="M 10.12 0 L 18.6 0 L 18.6 -29.15 L 28.04 -29.15 L 28.04 -37.1 L 0.64 -37.1 L 0.64 -29.15 L 10.12 -29.15 Z M 38.9 0 L 47.38 0 L 47.38 -37.1 L 38.9 -37.1 Z M 67.73 0 L 76.21 0 L 76.21 -29.15 L 85.65 -29.15 L 85.65 -37.1 L 58.25 -37.1 L 58.25 -29.15 L 67.73 -29.15 Z M 113.1 0 L 122.64 0 L 110.45 -37.1 L 100.91 -37.1 L 88.72 0 L 98.26 0 L 100.01 -6.09 L 111.35 -6.09 Z M 102.29 -14.04 L 105.68 -25.97 L 109.07 -14.04 Z M 154.92 0 L 162.44 0 L 162.44 -37.1 L 153.97 -37.1 L 153.97 -16.22 L 141.14 -37.1 L 132.13 -37.1 L 132.13 0 L 140.61 0 L 140.61 -23.32 Z M 193.77 0 L 207.28 0 C 217.35 0 225.25 -7.79 225.25 -18.76 C 225.25 -29.1 217.83 -37.1 207.28 -37.1 L 193.77 -37.1 Z M 202.25 -7.95 L 202.25 -29.15 L 206.17 -29.15 C 211.95 -29.15 216.24 -24.91 216.24 -18.66 C 216.24 -12.51 212.11 -7.95 206.01 -7.95 Z M 236.33 0 L 260.92 0 L 260.92 -7.95 L 244.81 -7.95 L 244.81 -14.57 L 258.75 -14.57 L 258.75 -22.52 L 244.81 -22.52 L 244.81 -29.15 L 260.39 -29.15 L 260.39 -37.1 L 236.33 -37.1 Z M 290.49 0 L 293.14 0 L 302.15 -20.35 L 302.15 0 L 310.63 0 L 310.63 -37.1 L 301.62 -37.1 L 291.82 -16.48 L 282.01 -37.1 L 273 -37.1 L 273 0 L 281.48 0 L 281.48 -20.35 Z M 340.26 0.53 C 351.34 0.53 359.34 -7 359.34 -18.55 C 359.34 -29.57 351.76 -37.63 340.26 -37.63 C 329.18 -37.63 321.18 -30.1 321.18 -18.55 C 321.18 -7.47 328.71 0.53 340.26 0.53 Z M 329.66 -18.55 C 329.66 -24.64 333.9 -29.15 340.26 -29.15 C 346.35 -29.15 350.86 -24.91 350.86 -18.55 C 350.86 -12.46 346.62 -7.95 340.26 -7.95 C 334.16 -7.95 329.66 -12.19 329.66 -18.55 Z M 406.46 0.53 C 410.49 0.53 414.09 -0.58 417 -2.65 L 417.59 0 L 424.48 0 L 424.48 -19.88 L 406.77 -19.88 L 406.77 -11.92 L 414.57 -11.92 C 412.76 -9.49 409.95 -7.95 406.46 -7.95 C 400.36 -7.95 395.86 -12.19 395.86 -18.55 C 395.86 -24.64 400.1 -29.15 406.46 -29.15 C 409.9 -29.15 412.76 -27.82 414.67 -25.39 L 421.14 -30.85 C 417.64 -35.09 412.5 -37.63 406.46 -37.63 C 395.38 -37.63 387.38 -30.1 387.38 -18.55 C 387.38 -7.47 394.9 0.53 406.46 0.53 Z M 436.56 0 L 445.04 0 L 445.04 -11.92 L 449.92 -11.92 L 456.7 0 L 466.24 0 L 457.55 -14.47 C 461.47 -16.22 463.96 -19.4 463.96 -24.54 C 463.96 -31.75 458.93 -37.1 451.4 -37.1 L 436.56 -37.1 Z M 445.04 -19.88 L 445.04 -29.15 L 450.87 -29.15 C 454.05 -29.15 455.48 -27.82 455.48 -24.54 C 455.48 -21.31 454.16 -19.88 450.87 -19.88 Z M 493.32 0.53 C 504.4 0.53 512.4 -7 512.4 -18.55 C 512.4 -29.57 504.82 -37.63 493.32 -37.63 C 482.25 -37.63 474.24 -30.1 474.24 -18.55 C 474.24 -7.47 481.77 0.53 493.32 0.53 Z M 482.72 -18.55 C 482.72 -24.64 486.96 -29.15 493.32 -29.15 C 499.42 -29.15 503.92 -24.91 503.92 -18.55 C 503.92 -12.46 499.68 -7.95 493.32 -7.95 C 487.23 -7.95 482.72 -12.19 482.72 -18.55 Z M 537.74 0.53 C 547.17 0.53 552.26 -4.93 552.26 -14.1 L 552.26 -37.1 L 543.78 -37.1 L 543.78 -14.04 C 543.78 -9.86 541.71 -7.95 537.69 -7.95 C 533.5 -7.95 531.59 -10.02 531.59 -14.04 L 531.59 -37.1 L 523.11 -37.1 L 523.11 -14.1 C 523.11 -4.5 528.52 0.53 537.74 0.53 Z M 564.66 0 L 573.14 0 L 573.14 -11.92 L 578.97 -11.92 C 586.18 -11.92 591.53 -17.01 591.53 -24.54 C 591.53 -31.75 586.5 -37.1 578.97 -37.1 L 564.66 -37.1 Z M 573.14 -19.88 L 573.14 -29.15 L 578.44 -29.15 C 581.62 -29.15 583.05 -27.82 583.05 -24.54 C 583.05 -21.31 581.73 -19.88 578.44 -19.88 Z" stroke-linecap="round" />
</g>
</g>
</g>
<g transform="matrix(1.9211538461538462 0 0 1.9211538461538462 640.7222462001891 763.1901272469447)" id="tagline-55b5f94d-9a6e-4d18-98ce-df19a54b3ad3-logo"  >
<g style=""  paint-order="stroke"   >
		<g transform="matrix(1 0 0 1 0 0)" id="tagline-55b5f94d-9a6e-4d18-98ce-df19a54b3ad3-logo-path-0"  >
<path style="stroke: none; stroke-width: 0; stroke-dasharray: none; stroke-linecap: butt; stroke-dashoffset: 0; stroke-linejoin: miter; stroke-miterlimit: 4; fill: rgb(242,135,5); fill-rule: nonzero; opacity: 1;"  paint-order="stroke"  transform=" translate(-266.26, 6.164999999999999)" d="M 8.25 0.21 C 11.26 0.21 13.48 -1.05 14.93 -3.78 L 11.97 -5.4 C 11.24 -3.99 9.89 -3.15 8.25 -3.15 C 5.84 -3.15 4.05 -4.83 4.05 -7.35 C 4.05 -9.77 5.73 -11.55 8.25 -11.55 C 9.87 -11.55 11.09 -10.86 11.91 -9.41 L 14.91 -10.96 C 13.59 -13.4 11.15 -14.91 8.25 -14.91 C 3.86 -14.91 0.69 -11.93 0.69 -7.35 C 0.69 -2.96 3.68 0.21 8.25 0.21 Z M 20.35 0 L 23.71 0 L 23.71 -4.73 L 25.64 -4.73 L 28.33 0 L 32.11 0 L 28.67 -5.73 C 30.22 -6.43 31.21 -7.69 31.21 -9.72 C 31.21 -12.58 29.21 -14.7 26.23 -14.7 L 20.35 -14.7 Z M 23.71 -7.88 L 23.71 -11.55 L 26.02 -11.55 C 27.28 -11.55 27.85 -11.03 27.85 -9.72 C 27.85 -8.44 27.32 -7.88 26.02 -7.88 Z M 42.78 0.21 C 46.52 0.21 48.53 -1.95 48.53 -5.59 L 48.53 -14.7 L 45.17 -14.7 L 45.17 -5.57 C 45.17 -3.91 44.35 -3.15 42.76 -3.15 C 41.1 -3.15 40.34 -3.97 40.34 -5.57 L 40.34 -14.7 L 36.98 -14.7 L 36.98 -5.59 C 36.98 -1.79 39.12 0.21 42.78 0.21 Z M 59.56 0.21 C 62.92 0.21 65 -2.21 65 -4.26 C 65 -6.7 62.79 -8.15 60.17 -8.99 C 58.4 -9.58 57.9 -9.89 57.9 -10.58 C 57.9 -11.19 58.63 -11.55 59.43 -11.55 C 60.31 -11.55 60.98 -11.09 61.64 -9.87 L 64.6 -11.63 C 63.53 -13.42 61.57 -14.91 59.43 -14.91 C 56.91 -14.91 54.54 -12.96 54.54 -10.58 C 54.54 -7.85 56.72 -6.83 59.2 -6.01 C 60.86 -5.46 61.49 -5.04 61.49 -4.26 C 61.49 -3.63 60.86 -3.15 59.56 -3.15 C 58.42 -3.15 57.48 -3.51 56.7 -5 L 53.84 -3.3 C 54.96 -1.39 56.85 0.21 59.56 0.21 Z M 78.94 0 L 82.3 0 L 82.3 -14.7 L 78.94 -14.7 L 78.94 -8.93 L 73.69 -8.93 L 73.69 -14.7 L 70.33 -14.7 L 70.33 0 L 73.69 0 L 73.69 -5.78 L 78.94 -5.78 Z M 88.91 0 L 92.27 0 L 92.27 -14.7 L 88.91 -14.7 Z M 107.92 0 L 110.9 0 L 110.9 -14.7 L 107.54 -14.7 L 107.54 -6.43 L 102.46 -14.7 L 98.89 -14.7 L 98.89 0 L 102.25 0 L 102.25 -9.24 Z M 123.98 0.21 C 125.58 0.21 127.01 -0.23 128.16 -1.05 L 128.39 0 L 131.12 0 L 131.12 -7.88 L 124.11 -7.88 L 124.11 -4.73 L 127.2 -4.73 C 126.48 -3.76 125.37 -3.15 123.98 -3.15 C 121.57 -3.15 119.78 -4.83 119.78 -7.35 C 119.78 -9.77 121.46 -11.55 123.98 -11.55 C 125.35 -11.55 126.48 -11.03 127.24 -10.06 L 129.8 -12.22 C 128.42 -13.9 126.38 -14.91 123.98 -14.91 C 119.6 -14.91 116.42 -11.93 116.42 -7.35 C 116.42 -2.96 119.41 0.21 123.98 0.21 Z M 145.19 0 L 151.98 0 C 154.46 0 156.51 -2.06 156.51 -4.58 C 156.51 -6.03 155.76 -7.1 154.64 -7.73 C 155.57 -8.38 155.93 -9.37 155.93 -10.58 C 155.93 -12.94 153.95 -14.7 151.6 -14.7 L 145.19 -14.7 Z M 148.55 -3.15 L 148.55 -5.99 L 151.56 -5.99 C 152.44 -5.99 152.94 -5.46 152.94 -4.58 C 152.94 -3.65 152.42 -3.15 151.56 -3.15 Z M 148.55 -9.13 L 148.55 -11.55 L 151.18 -11.55 C 151.98 -11.55 152.36 -11.15 152.36 -10.37 C 152.36 -9.51 151.98 -9.13 151.18 -9.13 Z M 170.27 0 L 174.05 0 L 169.22 -14.7 L 165.44 -14.7 L 160.61 0 L 164.39 0 L 165.08 -2.42 L 169.58 -2.42 Z M 165.98 -5.57 L 167.33 -10.29 L 168.67 -5.57 Z M 178.94 0 L 182.3 0 L 182.3 -4.73 L 184.23 -4.73 L 186.92 0 L 190.7 0 L 187.26 -5.73 C 188.81 -6.43 189.8 -7.69 189.8 -9.72 C 189.8 -12.58 187.8 -14.7 184.82 -14.7 L 178.94 -14.7 Z M 182.3 -7.88 L 182.3 -11.55 L 184.61 -11.55 C 185.87 -11.55 186.44 -11.03 186.44 -9.72 C 186.44 -8.44 185.91 -7.88 184.61 -7.88 Z M 195.89 0 L 199.25 0 L 199.25 -4.73 L 201.18 -4.73 L 203.87 0 L 207.65 0 L 204.2 -5.73 C 205.76 -6.43 206.75 -7.69 206.75 -9.72 C 206.75 -12.58 204.75 -14.7 201.77 -14.7 L 195.89 -14.7 Z M 199.25 -7.88 L 199.25 -11.55 L 201.56 -11.55 C 202.82 -11.55 203.39 -11.03 203.39 -9.72 C 203.39 -8.44 202.86 -7.88 201.56 -7.88 Z M 212.65 0 L 216.01 0 L 216.01 -14.7 L 212.65 -14.7 Z M 222.62 0 L 232.37 0 L 232.37 -3.15 L 225.98 -3.15 L 225.98 -5.78 L 231.5 -5.78 L 231.5 -8.93 L 225.98 -8.93 L 225.98 -11.55 L 232.16 -11.55 L 232.16 -14.7 L 222.62 -14.7 Z M 238.12 0 L 241.48 0 L 241.48 -4.73 L 243.41 -4.73 L 246.1 0 L 249.88 0 L 246.44 -5.73 C 247.99 -6.43 248.98 -7.69 248.98 -9.72 C 248.98 -12.58 246.98 -14.7 244 -14.7 L 238.12 -14.7 Z M 241.48 -7.88 L 241.48 -11.55 L 243.79 -11.55 C 245.05 -11.55 245.62 -11.03 245.62 -9.72 C 245.62 -8.44 245.09 -7.88 243.79 -7.88 Z M 260.44 0.21 C 263.8 0.21 265.88 -2.21 265.88 -4.26 C 265.88 -6.7 263.68 -8.15 261.05 -8.99 C 259.29 -9.58 258.78 -9.89 258.78 -10.58 C 258.78 -11.19 259.52 -11.55 260.32 -11.55 C 261.2 -11.55 261.87 -11.09 262.52 -9.87 L 265.48 -11.63 C 264.41 -13.42 262.46 -14.91 260.32 -14.91 C 257.8 -14.91 255.42 -12.96 255.42 -10.58 C 255.42 -7.85 257.61 -6.83 260.08 -6.01 C 261.74 -5.46 262.37 -5.04 262.37 -4.26 C 262.37 -3.63 261.74 -3.15 260.44 -3.15 C 259.31 -3.15 258.36 -3.51 257.59 -5 L 254.73 -3.3 C 255.84 -1.39 257.73 0.21 260.44 0.21 Z M 271.51 2.04 L 272.1 2.58 C 273.63 1.49 274.74 0 274.74 -1.45 C 274.74 -2.48 274.03 -3.23 272.96 -3.23 C 271.93 -3.23 271.17 -2.52 271.17 -1.45 C 271.17 -0.59 271.68 0.08 272.45 0.27 C 272.37 0.95 271.95 1.49 271.51 2.04 Z M 289.13 0 L 295.91 0 C 298.39 0 300.45 -2.06 300.45 -4.58 C 300.45 -6.03 299.69 -7.1 298.58 -7.73 C 299.5 -8.38 299.86 -9.37 299.86 -10.58 C 299.86 -12.94 297.89 -14.7 295.53 -14.7 L 289.13 -14.7 Z M 292.49 -3.15 L 292.49 -5.99 L 295.49 -5.99 C 296.37 -5.99 296.88 -5.46 296.88 -4.58 C 296.88 -3.65 296.35 -3.15 295.49 -3.15 Z M 292.49 -9.13 L 292.49 -11.55 L 295.11 -11.55 C 295.91 -11.55 296.29 -11.15 296.29 -10.37 C 296.29 -9.51 295.91 -9.13 295.11 -9.13 Z M 311.45 0.21 C 315.19 0.21 317.21 -1.95 317.21 -5.59 L 317.21 -14.7 L 313.85 -14.7 L 313.85 -5.57 C 313.85 -3.91 313.03 -3.15 311.43 -3.15 C 309.77 -3.15 309.02 -3.97 309.02 -5.57 L 309.02 -14.7 L 305.66 -14.7 L 305.66 -5.59 C 305.66 -1.79 307.8 0.21 311.45 0.21 Z M 323.46 0 L 326.82 0 L 326.82 -14.7 L 323.46 -14.7 Z M 333.44 0 L 343.18 0 L 343.18 -3.15 L 336.8 -3.15 L 336.8 -14.7 L 333.44 -14.7 Z M 348.71 0 L 354.06 0 C 358.05 0 361.18 -3.09 361.18 -7.43 C 361.18 -11.53 358.24 -14.7 354.06 -14.7 L 348.71 -14.7 Z M 352.07 -3.15 L 352.07 -11.55 L 353.62 -11.55 C 355.91 -11.55 357.61 -9.87 357.61 -7.39 C 357.61 -4.96 355.97 -3.15 353.56 -3.15 Z M 366.74 0 L 370.1 0 L 370.1 -14.7 L 366.74 -14.7 Z M 385.75 0 L 388.73 0 L 388.73 -14.7 L 385.37 -14.7 L 385.37 -6.43 L 380.29 -14.7 L 376.72 -14.7 L 376.72 0 L 380.08 0 L 380.08 -9.24 Z M 401.81 0.21 C 403.41 0.21 404.84 -0.23 405.99 -1.05 L 406.22 0 L 408.95 0 L 408.95 -7.88 L 401.94 -7.88 L 401.94 -4.73 L 405.03 -4.73 C 404.31 -3.76 403.2 -3.15 401.81 -3.15 C 399.4 -3.15 397.61 -4.83 397.61 -7.35 C 397.61 -9.77 399.29 -11.55 401.81 -11.55 C 403.18 -11.55 404.31 -11.03 405.07 -10.06 L 407.63 -12.22 C 406.25 -13.9 404.21 -14.91 401.81 -14.91 C 397.43 -14.91 394.25 -11.93 394.25 -7.35 C 394.25 -2.96 397.24 0.21 401.81 0.21 Z M 423.02 0 L 426.38 0 L 426.38 -5.78 L 432.12 -5.78 L 432.12 -8.93 L 426.38 -8.93 L 426.38 -11.55 L 432.56 -11.55 L 432.56 -14.7 L 423.02 -14.7 Z M 444.26 0.21 C 447.99 0.21 450.01 -1.95 450.01 -5.59 L 450.01 -14.7 L 446.65 -14.7 L 446.65 -5.57 C 446.65 -3.91 445.83 -3.15 444.23 -3.15 C 442.58 -3.15 441.82 -3.97 441.82 -5.57 L 441.82 -14.7 L 438.46 -14.7 L 438.46 -5.59 C 438.46 -1.79 440.6 0.21 444.26 0.21 Z M 459.1 0 L 462.46 0 L 462.46 -11.55 L 466.2 -11.55 L 466.2 -14.7 L 455.34 -14.7 L 455.34 -11.55 L 459.1 -11.55 Z M 477.39 0.21 C 481.13 0.21 483.15 -1.95 483.15 -5.59 L 483.15 -14.7 L 479.79 -14.7 L 479.79 -5.57 C 479.79 -3.91 478.97 -3.15 477.37 -3.15 C 475.71 -3.15 474.96 -3.97 474.96 -5.57 L 474.96 -14.7 L 471.6 -14.7 L 471.6 -5.59 C 471.6 -1.79 473.74 0.21 477.39 0.21 Z M 489.41 0 L 492.77 0 L 492.77 -4.73 L 494.7 -4.73 L 497.39 0 L 501.17 0 L 497.72 -5.73 C 499.28 -6.43 500.26 -7.69 500.26 -9.72 C 500.26 -12.58 498.27 -14.7 495.29 -14.7 L 489.41 -14.7 Z M 492.77 -7.88 L 492.77 -11.55 L 495.08 -11.55 C 496.34 -11.55 496.9 -11.03 496.9 -9.72 C 496.9 -8.44 496.38 -7.88 495.08 -7.88 Z M 506.16 0 L 515.91 0 L 515.91 -3.15 L 509.52 -3.15 L 509.52 -5.78 L 515.05 -5.78 L 515.05 -8.93 L 509.52 -8.93 L 509.52 -11.55 L 515.7 -11.55 L 515.7 -14.7 L 506.16 -14.7 Z M 526.39 0.21 C 529.75 0.21 531.83 -2.21 531.83 -4.26 C 531.83 -6.7 529.62 -8.15 527 -8.99 C 525.23 -9.58 524.73 -9.89 524.73 -10.58 C 524.73 -11.19 525.46 -11.55 526.26 -11.55 C 527.14 -11.55 527.81 -11.09 528.47 -9.87 L 531.43 -11.63 C 530.36 -13.42 528.4 -14.91 526.26 -14.91 C 523.74 -14.91 521.37 -12.96 521.37 -10.58 C 521.37 -7.85 523.55 -6.83 526.03 -6.01 C 527.69 -5.46 528.32 -5.04 528.32 -4.26 C 528.32 -3.63 527.69 -3.15 526.39 -3.15 C 525.25 -3.15 524.31 -3.51 523.53 -5 L 520.67 -3.3 C 521.79 -1.39 523.68 0.21 526.39 0.21 Z" stroke-linecap="round" />
</g>
</g>
</g>
<g transform="matrix(1.9211538461538462 0 0 1.9211538461538462 639.0821687499999 484.7382408217757)" id="tagline-2809d265-887f-4917-97b2-2319d80cf562-logo"  >
<g style=""  paint-order="stroke"   >
		<g transform="matrix(1 0 0 1 0 0)" id="tagline-2809d265-887f-4917-97b2-2319d80cf562-logo-path-0"  >
<path style="stroke: none; stroke-width: 0; stroke-dasharray: none; stroke-linecap: butt; stroke-dashoffset: 0; stroke-linejoin: miter; stroke-miterlimit: 4; fill: rgb(255,255,255); fill-rule: nonzero; opacity: 1;"  paint-order="stroke"  transform=" translate(-52.455, 17.15)" d="M 9.36 0 L 17.2 0 L 17.2 -26.95 L 25.92 -26.95 L 25.92 -34.3 L 0.59 -34.3 L 0.59 -26.95 L 9.36 -26.95 Z M 33.86 0 L 46.35 0 C 55.66 0 62.97 -7.2 62.97 -17.35 C 62.97 -26.9 56.11 -34.3 46.35 -34.3 L 33.86 -34.3 Z M 41.7 -7.35 L 41.7 -26.95 L 45.33 -26.95 C 50.67 -26.95 54.64 -23.03 54.64 -17.25 C 54.64 -11.56 50.81 -7.35 45.18 -7.35 Z M 87.66 0.49 C 91.38 0.49 94.72 -0.54 97.41 -2.45 L 97.95 0 L 104.32 0 L 104.32 -18.38 L 87.95 -18.38 L 87.95 -11.03 L 95.16 -11.03 C 93.49 -8.77 90.89 -7.35 87.66 -7.35 C 82.03 -7.35 77.86 -11.27 77.86 -17.15 C 77.86 -22.79 81.78 -26.95 87.66 -26.95 C 90.85 -26.95 93.49 -25.73 95.26 -23.47 L 101.23 -28.52 C 98 -32.44 93.25 -34.79 87.66 -34.79 C 77.42 -34.79 70.02 -27.83 70.02 -17.15 C 70.02 -6.91 76.98 0.49 87.66 0.49 Z" stroke-linecap="round" />
</g>
</g>
</g>
</svg>